<?xml version="1.0" ?><svg height="228px" version="1.1" viewBox="0 0 256 228" width="256px" xmlns="http://www.w3.org/2000/svg" xmlns:xlink="http://www.w3.org/1999/xlink"><title/><desc/><defs/><g fill="none" fill-rule="evenodd" id="Classic" stroke="none" stroke-width="1"><g fill="#4BA7DC" id="Qtum" transform="translate(-1570.000000, -1136.000000)"><g transform="translate(1570.000000, 1136.000000)"><g id="Circles"><circle cx="152.995708" cy="113.991416" id="Oval-5" r="9.06437768"/><circle cx="204.085837" cy="113.991416" id="Oval-5" r="9.06437768"/><circle cx="229.356223" cy="113.991416" id="Oval-5" r="9.06437768"/><circle cx="208.480687" cy="49.167382" id="Oval-5" r="9.06437768"/><circle cx="177.167382" cy="62.9012876" id="Oval-5" r="9.06437768"/><circle cx="118.935622" cy="55.2103004" id="Oval-5" r="9.06437768"/><circle cx="152.995708" cy="9.06437768" id="Oval-5" r="9.06437768"/><circle cx="85.4248927" cy="9.06437768" id="Oval-5" r="9.06437768"/><circle cx="61.2532189" cy="62.9012876" id="Oval-5" r="9.06437768"/><circle cx="29.9399142" cy="49.167382" id="Oval-5" r="9.06437768"/><circle cx="34.8841202" cy="113.991416" id="Oval-5" r="9.06437768"/><circle cx="9.06437768" cy="113.991416" id="Oval-5" r="9.06437768"/><circle cx="85.4248927" cy="113.991416" id="Oval-5" r="9.06437768"/><circle cx="61.2532189" cy="165.630901" id="Oval-5" r="9.06437768"/><circle cx="29.9399142" cy="178.815451" id="Oval-5" r="9.06437768"/><circle cx="118.935622" cy="172.223176" id="Oval-5" r="9.06437768"/><circle cx="85.4248927" cy="218.918455" id="Oval-5" r="9.06437768"/><circle cx="152.995708" cy="218.918455" id="Oval-5" r="9.06437768"/><circle cx="177.167382" cy="165.630901" id="Oval-5" r="9.06437768"/><circle cx="242.815451" cy="208.206009" id="Oval-5" r="13.1845494"/></g><g id="Down" transform="translate(5.493562, 110.420601)"><rect height="4.94420601" id="Rectangle-2" width="56.0343348" x="87.3476395" y="106.025751"/><rect height="4.94420601" id="Rectangle-2" transform="translate(86.341365, 58.056951) rotate(7.000000) translate(-86.341365, -58.056951) " width="56.0343348" x="58.3241975" y="55.5848483"/><rect height="4.94420601" id="Rectangle-2" transform="translate(67.663253, 81.129913) rotate(66.000000) translate(-67.663253, -81.129913) " width="56.0343348" x="39.6460859" y="78.6578097"/><rect height="4.94420601" id="Rectangle-2" transform="translate(39.873646, 61.904814) rotate(156.000000) translate(-39.873646, -61.904814) " width="28.5665236" x="25.5903845" y="59.4327113"/><rect height="4.94420601" id="Rectangle-2" transform="translate(142.375700, 58.056951) rotate(-7.000000) translate(-142.375700, -58.056951) " width="56.0343348" x="114.358532" y="55.5848483"/><rect height="4.94420601" id="Rectangle-2" transform="translate(95.587983, 87.072961) rotate(-54.000000) translate(-95.587983, -87.072961) " width="56.0343348" x="67.5708155" y="84.6008584"/><rect height="4.94420601" id="Rectangle-2" transform="translate(132.944206, 88.171674) rotate(54.000000) translate(-132.944206, -88.171674) " width="56.0343348" x="104.927039" y="85.6995708"/><rect height="4.94420601" id="Rectangle-2" transform="translate(158.214592, 84.326180) rotate(114.000000) translate(-158.214592, -84.326180) " width="56.0343348" x="130.197425" y="81.8540773"/><rect height="4.94420601" id="Rectangle-2" transform="translate(201.064378, 39.828326) rotate(86.000000) translate(-201.064378, -39.828326) " width="56.0343348" x="173.04721" y="37.3562232"/><rect height="4.94420601" id="Rectangle-2" transform="translate(186.231760, 61.253219) rotate(24.000000) translate(-186.231760, -61.253219) " width="39.5536481" x="166.454936" y="58.7811159"/><rect height="4.94420601" id="Rectangle-2" transform="translate(95.806140, 31.542549) rotate(-120.000000) translate(-95.806140, -31.542549) " width="56.0343348" x="67.7889727" y="29.0704456"/><rect height="4.94420601" id="Rectangle-2" transform="translate(43.617299, 30.993192) rotate(-118.000000) translate(-43.617299, -30.993192) " width="56.0343348" x="15.6001315" y="28.5210894"/><rect height="4.94420601" id="Rectangle-2" transform="translate(26.587256, 35.937398) rotate(-86.000000) translate(-26.587256, -35.937398) " width="56.0343348" x="-1.42991145" y="33.4652954"/><rect height="4.94420601" id="Rectangle-2" transform="translate(64.492835, 35.937398) rotate(-64.000000) translate(-64.492835, -35.937398) " width="56.0343348" x="36.475668" y="33.4652954"/><rect height="4.94420601" id="Rectangle-2" transform="translate(184.252492, 30.993192) rotate(118.000000) translate(-184.252492, -30.993192) " width="56.0343348" x="156.235325" y="28.5210894"/><rect height="4.94420601" id="Rectangle-2" transform="translate(160.080818, 30.993192) rotate(65.000000) translate(-160.080818, -30.993192) " width="56.0343348" x="132.063651" y="28.5210894"/><rect height="4.94420601" id="Rectangle-2" transform="translate(131.514295, 31.542549) rotate(-60.000000) translate(-131.514295, -31.542549) " width="56.0343348" x="103.497127" y="29.0704456"/><rect height="4.94420601" id="Rectangle-2" transform="translate(51.090129, 87.622318) rotate(36.000000) translate(-51.090129, -87.622318) " width="56.0343348" x="23.0729614" y="85.1502146"/><rect height="4.94420601" id="Rectangle-2" transform="translate(13.184549, 32.686695) rotate(72.000000) translate(-13.184549, -32.686695) " width="67.0214592" x="-20.3261803" y="30.2145923"/><rect height="4.94420601" id="Rectangle-2" transform="translate(213.884773, 34.271451) rotate(-72.000000) translate(-213.884773, -34.271451) " width="68.8595736" x="179.454986" y="31.7993483"/><rect height="4.94420601" id="Rectangle-2" transform="translate(176.565782, 87.686935) rotate(-36.000000) translate(-176.565782, -87.686935) " width="64.2746781" x="144.428443" y="85.2148323"/><rect height="4.94420601" id="Rectangle-2" transform="translate(217.529972, 81.319012) rotate(-139.000000) translate(-217.529972, -81.319012) " width="42.3004292" x="196.379758" y="78.8469088"/><rect height="4.94420601" id="Rectangle-2" width="208.206009" x="9.33905579" y="1.09871245"/></g><g id="Up" transform="translate(118.935622, 61.253219) rotate(-180.000000) translate(-118.935622, -61.253219) translate(5.493562, 4.944206)"><rect height="4.94420601" id="Rectangle-2" width="56.0343348" x="87.3476395" y="106.025751"/><rect height="4.94420601" id="Rectangle-2" transform="translate(86.341365, 58.056951) rotate(7.000000) translate(-86.341365, -58.056951) " width="56.0343348" x="58.3241975" y="55.5848483"/><rect height="4.94420601" id="Rectangle-2" transform="translate(67.663253, 81.129913) rotate(66.000000) translate(-67.663253, -81.129913) " width="56.0343348" x="39.6460859" y="78.6578097"/><rect height="4.94420601" id="Rectangle-2" transform="translate(39.873646, 61.904814) rotate(156.000000) translate(-39.873646, -61.904814) " width="28.5665236" x="25.5903845" y="59.4327113"/><rect height="4.94420601" id="Rectangle-2" transform="translate(142.375700, 58.056951) rotate(-7.000000) translate(-142.375700, -58.056951) " width="56.0343348" x="114.358532" y="55.5848483"/><rect height="4.94420601" id="Rectangle-2" transform="translate(95.587983, 87.072961) rotate(-54.000000) translate(-95.587983, -87.072961) " width="56.0343348" x="67.5708155" y="84.6008584"/><rect height="4.94420601" id="Rectangle-2" transform="translate(132.944206, 88.171674) rotate(54.000000) translate(-132.944206, -88.171674) " width="56.0343348" x="104.927039" y="85.6995708"/><rect height="4.94420601" id="Rectangle-2" transform="translate(158.214592, 84.326180) rotate(114.000000) translate(-158.214592, -84.326180) " width="56.0343348" x="130.197425" y="81.8540773"/><rect height="4.94420601" id="Rectangle-2" transform="translate(201.064378, 39.828326) rotate(86.000000) translate(-201.064378, -39.828326) " width="56.0343348" x="173.04721" y="37.3562232"/><rect height="4.94420601" id="Rectangle-2" transform="translate(186.231760, 61.253219) rotate(24.000000) translate(-186.231760, -61.253219) " width="39.5536481" x="166.454936" y="58.7811159"/><rect height="4.94420601" id="Rectangle-2" transform="translate(95.806140, 31.542549) rotate(-120.000000) translate(-95.806140, -31.542549) " width="56.0343348" x="67.7889727" y="29.0704456"/><rect height="4.94420601" id="Rectangle-2" transform="translate(43.617299, 30.993192) rotate(-118.000000) translate(-43.617299, -30.993192) " width="56.0343348" x="15.6001315" y="28.5210894"/><rect height="4.94420601" id="Rectangle-2" transform="translate(26.587256, 35.937398) rotate(-86.000000) translate(-26.587256, -35.937398) " width="56.0343348" x="-1.42991145" y="33.4652954"/><rect height="4.94420601" id="Rectangle-2" transform="translate(64.492835, 35.937398) rotate(-64.000000) translate(-64.492835, -35.937398) " width="56.0343348" x="36.475668" y="33.4652954"/><rect height="4.94420601" id="Rectangle-2" transform="translate(184.252492, 30.993192) rotate(118.000000) translate(-184.252492, -30.993192) " width="56.0343348" x="156.235325" y="28.5210894"/><rect height="4.94420601" id="Rectangle-2" transform="translate(160.080818, 30.993192) rotate(65.000000) translate(-160.080818, -30.993192) " width="56.0343348" x="132.063651" y="28.5210894"/><rect height="4.94420601" id="Rectangle-2" transform="translate(131.514295, 31.542549) rotate(-60.000000) translate(-131.514295, -31.542549) " width="56.0343348" x="103.497127" y="29.0704456"/><rect height="4.94420601" id="Rectangle-2" transform="translate(51.090129, 87.622318) rotate(36.000000) translate(-51.090129, -87.622318) " width="56.0343348" x="23.0729614" y="85.1502146"/><rect height="4.94420601" id="Rectangle-2" transform="translate(13.184549, 32.686695) rotate(72.000000) translate(-13.184549, -32.686695) " width="67.0214592" x="-20.3261803" y="30.2145923"/><rect height="4.94420601" id="Rectangle-2" transform="translate(213.884773, 34.271451) rotate(-72.000000) translate(-213.884773, -34.271451) " width="68.8595736" x="179.454986" y="31.7993483"/><rect height="4.94420601" id="Rectangle-2" transform="translate(176.565782, 87.686935) rotate(-36.000000) translate(-176.565782, -87.686935) " width="64.2746781" x="144.428443" y="85.2148323"/></g></g></g></g></svg>